Coordinates
version=1
nRows=11
nColumns=36
inDegrees=yes

Units are S.I. units (second, meters, Newtons, ...)
If the header above contains a line with 'inDegrees', this indicates whether rotational values are in degrees (yes) or radians (no).

endheader
time	pelvis_tilt	pelvis_list	pelvis_rotation	pelvis_tx	pelvis_ty	pelvis_tz	hip_flexion_r	hip_adduction_r	hip_rotation_r	knee_angle_r	knee_angle_r_beta	ankle_angle_r	subtalar_angle_r	mtp_angle_r	hip_flexion_l	hip_adduction_l	hip_rotation_l	knee_angle_l	knee_angle_l_beta	ankle_angle_l	subtalar_angle_l	mtp_angle_l	lumbar_extension	lumbar_bending	lumbar_rotation	arm_flex_r	arm_add_r	arm_rot_r	elbow_flex_r	pro_sup_r	arm_flex_l	arm_add_l	arm_rot_l	elbow_flex_l	pro_sup_l
      4.30000000	      0.48215313	      1.00214104	     -3.11992724	     -0.26714689	      1.15426434	     -0.63702408	     11.53232049	    -10.77786726	     -1.38385924	     14.47589709	      0.25265207	     -1.21935007	     -2.81025514	     -7.49999896	      7.49747284	     -8.46621148	     -9.13696712	     13.51170217	      0.23582369	      0.25565094	      0.41943510	     -7.49999896	    -17.25636039	     -1.01785475	      7.81500399	     -4.47322473	    -21.77163294	     23.15027405	    117.98595780	    112.74367736	      3.38065637	    -18.37961803	     32.18627717	    116.29254277	    111.44640010
      4.31000000	     -0.34209180	      1.11799477	     -3.23564145	     -0.27259320	      1.15219583	     -0.63674008	     13.43768877	    -10.76836566	     -0.70299917	     15.71581365	      0.27429269	     -1.40711967	     -3.67768836	     -7.49999909	      9.23450278	     -8.51443739	     -8.98554691	     14.62824947	      0.25531112	      0.44881463	      0.00828695	     -7.49999909	    -17.54305650	     -1.18036365	      7.85597021	     -2.69170753	    -21.79229211	     23.26797028	    117.50891883	    112.70758114	      5.12440805	    -18.08501856	     32.40647735	    115.76144080	    110.88616339
      4.32000000	     -1.25490524	      1.33362881	     -3.29836657	     -0.27856103	      1.14994717	     -0.63669073	     15.63681216	    -10.92165216	     -0.37537616	     17.25615270	      0.30117668	     -1.30440122	     -3.84541886	     -7.49999918	     11.13713654	     -8.40152297	     -8.52709082	     15.75849224	      0.27503757	      0.24884852	     -0.96297427	     -7.49999918	    -17.86652199	     -1.40956668	      7.80764324	     -0.77335972	    -21.81587662	     23.32799096	    117.09649945	    112.72094359	      7.03212853	    -17.87472659	     32.60112509	    115.26153949	    110.69041502
      4.33000000	     -2.08621773	      1.56414507	     -3.33019424	     -0.28459958	      1.14766084	     -0.63668217	     17.67941605	    -11.06273446	      0.09381889	     18.65937469	      0.32566752	     -1.26612749	     -4.27114513	     -7.49999928	     13.00086591	     -8.29709350	     -8.19690639	     16.96346651	      0.29606834	      0.13329759	     -1.57270606	     -7.49999928	    -18.33667566	     -1.65427885	      7.80083812	      1.08172079	    -21.77957535	     23.26166093	    116.75631122	    112.85827333	      9.01437482	    -17.57057525	     32.83132188	    114.73204488	    110.44241486
      4.34000000	     -2.93044930	      1.69139201	     -3.31724238	     -0.29083522	      1.14510046	     -0.63653807	     19.73036319	    -11.07581398	      0.47049888	     20.09467361	      0.35071822	     -1.27239334	     -4.90272036	     -7.49999939	     14.93174917	     -8.32420079	     -7.88314768	     18.24156177	      0.31837531	      0.14283135	     -1.98754405	     -7.49999939	    -18.88056918	     -1.79616020	      7.82269063	      2.96454264	    -21.73928509	     23.05898576	    116.56193119	    112.77434639	     11.17228690	    -17.34642653	     33.12768651	    114.26330248	    110.00806062
      4.35000000	     -3.82249663	      1.77457666	     -3.23094422	     -0.29716612	      1.14212729	     -0.63654142	     21.77470362	    -11.07406890	      0.75965184	     21.45957375	      0.37454022	     -1.26178780	     -5.37160622	     -7.49999940	     16.93802395	     -8.35693424	     -7.37949591	     19.52591730	      0.34079155	      0.14699398	     -2.54703128	     -7.49999940	    -19.40044187	     -1.85337941	      7.72748900	      4.97844109	    -21.72547202	     22.95011169	    116.40029846	    112.60001886	     13.32930622	    -17.18003182	     33.32665029	    113.89360599	    110.11960311
      4.36000000	     -4.67859419	      1.86889339	     -3.14791411	     -0.30356790	      1.13872884	     -0.63655192	     23.76227302	    -11.10878381	      0.97976065	     22.75254877	      0.39710689	     -1.25242868	     -5.82625236	     -7.49999940	     18.91162278	     -8.38491747	     -7.03256528	     20.82150412	      0.36340380	      0.24127850	     -3.11647549	     -7.49999940	    -19.97758531	     -1.94559440	      7.66030091	      7.03106697	    -21.76569766	     22.87291965	    116.34034701	    112.41882205	     15.68008187	    -17.03808382	     33.63920556	    113.50425761	    110.16059998
      4.37000000	     -5.70446314	      1.99456416	     -3.09790805	     -0.31014627	      1.13453473	     -0.63642181	     25.93243638	    -11.15275054	      1.21925561	     23.99846775	      0.41885228	     -1.14463456	     -6.20807945	     -7.49999941	     21.06891260	     -8.39516223	     -6.71142033	     22.12917594	      0.38622698	      0.41300684	     -3.70317382	     -7.49999941	    -20.35153771	     -2.04022137	      7.63594231	      9.20127744	    -21.83174219	     22.95516322	    116.28667781	    112.22023154	     18.12024685	    -17.02322951	     34.01954025	    113.14894452	    110.16123942
      4.38000000	     -6.87442643	      2.10081012	     -3.03495502	     -0.31689899	      1.12957774	     -0.63622119	     28.22272214	    -11.15678732	      1.47993820	     25.21179414	      0.44002882	     -0.96738589	     -6.53568404	     -7.49999942	     23.40997775	     -8.44235177	     -6.40635901	     23.47170758	      0.40965858	      0.60653724	     -4.25004620	     -7.49999942	    -20.56057667	     -2.08763680	      7.53109870	     11.45352579	    -21.90307048	     23.07172482	    116.22477823	    111.95252187	     20.57470030	    -17.02656636	     34.28240937	    112.81898612	    110.12384059
      4.39000000	     -8.09097609	      2.20577918	     -2.99654628	     -0.32397776	      1.12396952	     -0.63601904	     30.56676115	    -11.16416847	      1.67309978	     26.38289017	      0.46046830	     -0.70998129	     -6.80542229	     -7.49999943	     25.87258440	     -8.55343960	     -6.29526425	     24.93743344	      0.43524032	      0.93491442	     -4.62214434	     -7.49999943	    -20.70045232	     -2.16629995	      7.51165367	     13.84448462	    -22.08415317	     23.21871733	    116.17644508	    111.69425028	     23.22029932	    -17.02560987	     34.64413567	    112.40705485	    110.07427987
      4.40000000	     -9.37687211	      2.31031138	     -2.99441905	     -0.33145632	      1.11767448	     -0.63584224	     33.02324642	    -11.17773946	      1.83653736	     27.54942905	      0.48082824	     -0.41906762	     -6.95140628	     -7.49999943	     28.49948479	     -8.74784828	     -6.36372547	     26.55010872	      0.46338681	      1.37718975	     -4.80843610	     -7.49999943	    -20.76473049	     -2.32965426	      7.69419531	     16.19801799	    -22.40834446	     23.22987837	    116.19798199	    111.43653749	     26.18367921	    -16.92074300	     35.22885344	    111.81607249	    110.01221344
